<?xml version="1.0" encoding="utf-8"?>
<!-- Generator: Adobe Illustrator 21.1.0, SVG Export Plug-In . SVG Version: 6.00 Build 0)  -->
<svg version="1.1" id="Layer_1" xmlns="http://www.w3.org/2000/svg" xmlns:xlink="http://www.w3.org/1999/xlink" x="0px" y="0px"
	 viewBox="0 0 301.9 146.9" style="enable-background:new 0 0 301.9 146.9;" xml:space="preserve">
<style type="text/css">
	.st0{fill:#E6E6E6;}
	.st1{fill:#0097D5;}
	.st2{fill:#FFB02A;}
	.st3{fill:#5E5E5E;}
	.st4{fill:#FFFFFF;}
</style>
<path class="st0" d="M128.5,134c-1-1.3-2.4-3.1-4-5.2c-14.7-19.3-51.1-68.8-55-91.7c-0.1-0.4-0.1-0.7-0.2-1.1
	C67.4,18.6,52.7,5.1,34.8,5.1C15.6,5.1,0,20.7,0,39.9c0,0.9,0,1.9,0.1,2.8C0,42.7,0,42.7,0,42.7s9.2,77.5,27.8,96.5
	c1,1.6,2.8,2.7,4.9,2.7c3,0,5.4-2.3,5.7-5.2c0-0.2,0-0.3,0-0.5c0-3.2,2.6-5.7,5.7-5.7c3.1,0,5.7,2.6,5.7,5.7c0,0.2,0,0.3,0,0.5
	c0.2,2.9,2.7,5.2,5.7,5.2c3,0,5.4-2.3,5.7-5.2c0-0.2,0-0.3,0-0.5v0.3c0-3.2,2.6-5.7,5.7-5.7c3.1,0,5.7,2.6,5.7,5.7
	c0,0.1,0,0.2,0,0.2c0.1,3,2.6,5.5,5.7,5.5c3.1,0,5.6-2.4,5.7-5.5c0-0.1,0-0.2,0-0.2c0-3.2,2.6-5.7,5.7-5.7c3.2,0,5.7,2.6,5.7,5.7
	c0,0.1,0,0.2,0,0.2c0.1,3,2.6,5.5,5.7,5.5s5.6-2.4,5.7-5.5c0-0.1,0-0.2,0-0.2c0-3.2,2.6-5.7,5.7-5.7c3.1,0,5.7,2.6,5.7,5.7
	c0,0.1,0,0.2,0,0.2c0.1,3,2.6,5.5,5.7,5.5c3.1,0,5.6-2.4,5.7-5.5c0-0.1,0-0.2,0-0.2L128.5,134z"/>
<g>
	<path class="st1" d="M32.9,130.9c-1.5,0.8-3.8,1.2-6.9,1.2c-7.2,0-10.8-3.8-10.8-11.3v-15.2H9.8V98h5.4v-7.2l10.2-2.9V98h7.5v7.6
		h-7.5v13.4c0,3.5,1.4,5.2,4.1,5.2c1.1,0,2.2-0.3,3.3-0.9V130.9z"/>
	<path class="st1" d="M54.3,132.1c-5.5,0-9.9-1.6-13.1-4.7c-3.2-3.1-4.8-7.3-4.8-12.7c0-5.5,1.6-9.8,4.9-12.9
		c3.3-3.1,7.7-4.7,13.3-4.7c5.5,0,9.9,1.6,13,4.7c3.1,3.1,4.7,7.2,4.7,12.3c0,5.5-1.6,9.9-4.9,13.1
		C64.3,130.5,59.9,132.1,54.3,132.1z M54.5,105.1c-2.4,0-4.3,0.8-5.7,2.5c-1.3,1.7-2,4-2,7.1c0,6.4,2.6,9.6,7.7,9.6
		c4.9,0,7.4-3.3,7.4-9.8C62,108.2,59.5,105.1,54.5,105.1z"/>
	<path class="st1" d="M110.7,98L97.2,134c-3.2,8.6-8.1,13-14.7,13c-2.5,0-4.5-0.3-6.1-0.8v-8.2c1.4,0.8,2.8,1.2,4.4,1.2
		c2.6,0,4.5-1.2,5.5-3.7l1.8-4.1L74.6,98H86l6.2,20.2c0.4,1.3,0.7,2.7,0.9,4.4h0.1c0.2-1.3,0.6-2.7,1.1-4.4l6.3-20.3H110.7z"/>
	<path class="st1" d="M112.7,130.4v-8.3c1.7,1,3.4,1.8,5.1,2.3c1.7,0.5,3.3,0.7,4.8,0.7c1.8,0,3.3-0.2,4.3-0.7
		c1.1-0.5,1.6-1.3,1.6-2.3c0-0.6-0.2-1.2-0.7-1.6c-0.5-0.4-1.1-0.8-1.8-1.1c-0.7-0.3-1.6-0.6-2.5-0.9c-0.9-0.3-1.7-0.6-2.6-0.9
		c-1.3-0.5-2.5-1-3.5-1.6c-1-0.6-1.9-1.2-2.5-2c-0.7-0.8-1.2-1.6-1.6-2.6c-0.4-1-0.5-2.2-0.5-3.5c0-1.9,0.4-3.5,1.2-4.8
		c0.8-1.3,1.9-2.4,3.2-3.3c1.4-0.9,2.9-1.5,4.6-1.9c1.7-0.4,3.6-0.6,5.4-0.6c1.5,0,3,0.1,4.5,0.3c1.5,0.2,3,0.6,4.5,1v7.9
		c-1.3-0.8-2.7-1.3-4.2-1.7c-1.5-0.4-2.9-0.6-4.4-0.6c-0.7,0-1.3,0.1-1.9,0.2c-0.6,0.1-1.1,0.3-1.6,0.5c-0.5,0.2-0.8,0.5-1.1,0.9
		c-0.3,0.4-0.4,0.8-0.4,1.2c0,0.6,0.2,1.1,0.6,1.6c0.4,0.4,0.9,0.8,1.5,1.1c0.6,0.3,1.3,0.6,2.1,0.8c0.8,0.2,1.5,0.5,2.3,0.8
		c1.4,0.5,2.6,1,3.7,1.6c1.1,0.6,2.1,1.2,2.8,2c0.8,0.8,1.4,1.6,1.8,2.7c0.4,1,0.6,2.2,0.6,3.6c0,2-0.4,3.7-1.3,5
		c-0.9,1.4-2,2.5-3.4,3.4c-1.4,0.9-3.1,1.5-4.9,1.9c-1.9,0.4-3.8,0.6-5.8,0.6C119.2,132.1,115.8,131.6,112.7,130.4z"/>
</g>
<g>
	<path class="st2" d="M18.4,39c-1.9,0-3.4-0.6-4.6-1.7c-1.2-1.1-1.8-2.5-1.8-4.1c0-1.7,0.6-3,1.8-4.1c1.2-1.1,2.8-1.6,4.6-1.6
		c1.9,0,3.5,0.5,4.7,1.6c1.2,1.1,1.8,2.4,1.8,4.1c0,1.7-0.6,3.1-1.8,4.2C21.9,38.4,20.4,39,18.4,39z"/>
</g>
<g>
	<path class="st2" d="M40.6,39c-1.9,0-3.4-0.6-4.6-1.7c-1.2-1.1-1.8-2.5-1.8-4.1c0-1.7,0.6-3,1.8-4.1c1.2-1.1,2.8-1.6,4.6-1.6
		c1.9,0,3.5,0.5,4.7,1.6c1.2,1.1,1.8,2.4,1.8,4.1c0,1.7-0.6,3.1-1.8,4.2C44.1,38.4,42.5,39,40.6,39z"/>
</g>
<path class="st3" d="M23.9,68.7c0,1.5,0.4,2.7,1.1,3.5c0.7,0.8,1.7,1.2,2.9,1.2c0.6,0,1.2-0.1,1.8-0.2c0.6-0.1,1.2-0.2,1.8-0.4v7.9
	c-1.3,0.4-2.8,0.6-4.3,0.9c-1.5,0.2-3.1,0.3-4.7,0.3c-1.5,0-2.8-0.2-4.1-0.7c-1.2-0.5-2.3-1.2-3.1-2.1c-0.9-0.9-1.5-2.1-2-3.4
	c-0.5-1.3-0.7-2.8-0.7-4.5V44.7h11.1V68.7z"/>
<path class="st3" d="M71.4,81H60.2V60.8c0-5.6-2-8.4-6-8.4c-1.9,0-3.5,0.7-4.8,2.2c-1.3,1.5-1.9,3.4-1.9,5.7V81H36.3V44.7h11.2v5.7
	h0.1c2.7-4.4,6.6-6.6,11.7-6.6c8,0,12.1,5,12.1,15V81z"/>
<path class="st3" d="M114.8,44.7L101.3,81H88.5L75.7,44.7h12l6.3,22.4c0.7,2.5,1.1,4.7,1.2,6.5h0.1c0.2-1.7,0.6-3.8,1.3-6.2
	l6.5-22.6H114.8z"/>
<g>
	<path class="st2" d="M125,40.4c-2.3,0-4.1-0.7-5.6-2.1c-1.5-1.4-2.3-3.1-2.3-5.2c0-2.1,0.8-3.8,2.3-5.2c1.5-1.3,3.3-2,5.6-2
		c2.3,0,4.1,0.7,5.6,2c1.5,1.3,2.3,3.1,2.3,5.2c0,2.1-0.8,3.9-2.3,5.2C129.2,39.7,127.3,40.4,125,40.4z"/>
	<path class="st4" d="M125,27.5c1.9,0,3.5,0.5,4.7,1.6c1.2,1.1,1.8,2.4,1.8,4.1c0,1.7-0.6,3.1-1.8,4.2c-1.2,1.1-2.7,1.6-4.7,1.6
		c-1.9,0-3.4-0.6-4.6-1.7c-1.2-1.1-1.8-2.5-1.8-4.1c0-1.7,0.6-3,1.8-4.1C121.6,28,123.1,27.5,125,27.5 M125,24.6
		c-2.6,0-4.8,0.8-6.5,2.3c-1.8,1.6-2.8,3.8-2.8,6.2c0,2.4,0.9,4.6,2.7,6.2c1.7,1.6,4,2.4,6.6,2.4c2.6,0,4.8-0.8,6.6-2.4
		c1.8-1.6,2.7-3.8,2.7-6.3c0-2.5-0.9-4.6-2.7-6.2C129.8,25.4,127.6,24.6,125,24.6L125,24.6z"/>
</g>
<path class="st3" d="M130.4,68.7c0,1.5,0.4,2.7,1.1,3.5c0.7,0.8,1.7,1.2,2.9,1.2c0.6,0,1.2-0.1,1.8-0.2c0.6-0.1,1.2-0.2,1.8-0.4v7.9
	c-1.3,0.4-2.8,0.6-4.3,0.9c-1.5,0.2-3.1,0.3-4.7,0.3c-1.5,0-2.8-0.2-4.1-0.7c-1.2-0.5-2.3-1.2-3.1-2.1c-0.9-0.9-1.5-2.1-2-3.4
	c-0.5-1.3-0.7-2.8-0.7-4.5V44.7h11.1V68.7z"/>
<path class="st3" d="M140.5,80.1V71c1.8,1.1,3.7,1.9,5.5,2.5c1.8,0.5,3.6,0.8,5.2,0.8c2,0,3.5-0.3,4.7-0.8c1.1-0.5,1.7-1.4,1.7-2.5
	c0-0.7-0.3-1.3-0.8-1.8c-0.5-0.5-1.2-0.9-2-1.2c-0.8-0.4-1.7-0.7-2.7-1c-1-0.3-1.9-0.6-2.8-1c-1.4-0.5-2.7-1.1-3.8-1.8
	c-1.1-0.6-2-1.4-2.8-2.2s-1.3-1.8-1.7-2.9c-0.4-1.1-0.6-2.4-0.6-3.9c0-2,0.4-3.8,1.3-5.2c0.9-1.5,2.1-2.7,3.5-3.6
	c1.5-0.9,3.2-1.6,5.1-2.1c1.9-0.4,3.9-0.7,5.9-0.7c1.6,0,3.2,0.1,4.9,0.4c1.7,0.2,3.3,0.6,4.9,1.1v8.6c-1.4-0.8-2.9-1.4-4.6-1.9
	c-1.6-0.4-3.2-0.6-4.8-0.6c-0.7,0-1.4,0.1-2.1,0.2c-0.7,0.1-1.2,0.3-1.7,0.6c-0.5,0.2-0.9,0.6-1.2,1c-0.3,0.4-0.4,0.8-0.4,1.3
	c0,0.7,0.2,1.2,0.6,1.7c0.4,0.5,1,0.9,1.7,1.2c0.7,0.3,1.4,0.7,2.3,0.9c0.8,0.3,1.7,0.5,2.5,0.8c1.5,0.5,2.8,1.1,4,1.7
	c1.2,0.6,2.2,1.3,3.1,2.2s1.5,1.8,2,2.9s0.7,2.4,0.7,4c0,2.2-0.5,4-1.4,5.5c-0.9,1.5-2.2,2.8-3.7,3.7c-1.5,1-3.3,1.7-5.4,2.1
	c-2,0.4-4.1,0.7-6.3,0.7C147.6,81.9,143.9,81.3,140.5,80.1z"/>
<g>
	<path class="st2" d="M180.2,40.4c-2.3,0-4.1-0.7-5.6-2.1c-1.5-1.4-2.3-3.1-2.3-5.2c0-2.1,0.8-3.8,2.3-5.2c1.5-1.3,3.3-1.9,5.6-1.9
		c2.3,0,4.1,0.7,5.6,2c1.5,1.3,2.3,3.1,2.3,5.2c0,2.1-0.8,3.9-2.3,5.2C184.4,39.7,182.5,40.4,180.2,40.4z"/>
	<path class="st4" d="M180.2,27.5c1.9,0,3.5,0.5,4.7,1.6c1.2,1.1,1.8,2.4,1.8,4.1c0,1.7-0.6,3.1-1.8,4.2c-1.2,1.1-2.7,1.6-4.7,1.6
		c-1.9,0-3.4-0.6-4.6-1.7c-1.2-1.1-1.8-2.5-1.8-4.1c0-1.7,0.6-3,1.8-4.1C176.8,28,178.3,27.5,180.2,27.5 M180.2,24.6
		c-2.6,0-4.8,0.8-6.5,2.3c-1.8,1.6-2.8,3.8-2.8,6.2c0,2.4,0.9,4.6,2.7,6.2c1.7,1.6,4,2.4,6.6,2.4c2.6,0,4.8-0.8,6.6-2.4
		c1.8-1.6,2.7-3.8,2.7-6.3c0-2.5-0.9-4.6-2.7-6.2C185,25.4,182.8,24.6,180.2,24.6L180.2,24.6z"/>
</g>
<path class="st3" d="M185.6,68.7c0,1.5,0.4,2.7,1.1,3.5c0.7,0.8,1.7,1.2,2.9,1.2c0.6,0,1.2-0.1,1.8-0.2c0.6-0.1,1.2-0.2,1.8-0.4v7.9
	c-1.3,0.4-2.8,0.6-4.3,0.9c-1.5,0.2-3.1,0.3-4.7,0.3c-1.5,0-2.8-0.2-4.1-0.7c-1.2-0.5-2.3-1.2-3.1-2.1c-0.9-0.9-1.5-2.1-2-3.4
	c-0.5-1.3-0.7-2.8-0.7-4.5V44.7h11.1V68.7z"/>
<path class="st3" d="M209.4,76.8h-0.1V81h-11.2V27.3h11.2v22.9h0.1c2.8-4.2,6.7-6.3,11.8-6.3c4.7,0,8.3,1.6,10.8,4.8
	c2.5,3.2,3.8,7.6,3.8,13.2c0,6.1-1.5,10.9-4.4,14.6c-3,3.7-6.9,5.5-11.8,5.5C215.1,81.9,211.7,80.2,209.4,76.8z M209.1,61.5v3.7
	c0,2.3,0.7,4.3,2,5.8c1.3,1.5,3.1,2.3,5.2,2.3c2.6,0,4.5-1,5.9-3c1.4-2,2.1-4.8,2.1-8.4c0-3-0.6-5.3-1.9-7c-1.3-1.7-3.1-2.5-5.5-2.5
	c-2.2,0-4.1,0.8-5.6,2.5C209.8,56.6,209.1,58.8,209.1,61.5z"/>
<path class="st3" d="M254,68.7c0,1.5,0.4,2.7,1.1,3.5c0.7,0.8,1.7,1.2,2.9,1.2c0.6,0,1.2-0.1,1.8-0.2c0.6-0.1,1.2-0.2,1.8-0.4v7.9
	c-1.3,0.4-2.8,0.6-4.3,0.9c-1.5,0.2-3.1,0.3-4.7,0.3c-1.5,0-2.8-0.2-4.1-0.7c-1.2-0.5-2.3-1.2-3.1-2.1c-0.9-0.9-1.5-2.1-2-3.4
	c-0.5-1.3-0.7-2.8-0.7-4.5V27.3H254V68.7z"/>
<path class="st3" d="M299,66.1h-23.7c0.4,5.3,3.7,7.9,10,7.9c4,0,7.5-0.9,10.5-2.8v8.1c-3.4,1.8-7.7,2.7-13.1,2.7
	c-5.9,0-10.4-1.6-13.6-4.9c-3.2-3.2-4.9-7.8-4.9-13.6c0-6,1.7-10.8,5.2-14.3c3.5-3.5,7.8-5.3,12.9-5.3c5.3,0,9.4,1.6,12.3,4.7
	c2.9,3.1,4.3,7.4,4.3,12.8V66.1z M288.6,59.2c0-5.2-2.1-7.8-6.3-7.8c-1.8,0-3.3,0.7-4.7,2.2c-1.3,1.5-2.1,3.3-2.4,5.6H288.6z"/>
</svg>
